<svg xmlns="http://www.w3.org/2000/svg" viewBox="0 0 512 512" role="img" aria-labelledby="title">
  <title id="title">養肌農場 App 圖示</title>
  <defs>
    <linearGradient id="sky" x1="0" x2="0" y1="0" y2="1">
      <stop offset="0" stop-color="#8fe4ff"/>
      <stop offset="0.58" stop-color="#dff8ff"/>
      <stop offset="1" stop-color="#f7fff0"/>
    </linearGradient>
    <linearGradient id="leaf" x1="0" x2="1" y1="0" y2="1">
      <stop offset="0" stop-color="#9be23b"/>
      <stop offset="1" stop-color="#44b82e"/>
    </linearGradient>
  </defs>
  <rect width="512" height="512" rx="102" fill="url(#sky)"/>
  <circle cx="402" cy="88" r="48" fill="#ffd21f"/>
  <path d="M0 286 C72 236 144 238 212 284 C286 334 372 304 512 242 L512 512 L0 512 Z" fill="#b9eb54"/>
  <path d="M0 342 C78 292 166 296 254 340 C336 380 416 354 512 308 L512 512 L0 512 Z" fill="#79cf38"/>
  <path d="M78 334 H434 A30 30 0 0 1 464 364 V446 A34 34 0 0 1 430 480 H82 A34 34 0 0 1 48 446 V364 A30 30 0 0 1 78 334Z" fill="#c98542"/>
  <path d="M62 382 H450" stroke="#a46a32" stroke-width="16" stroke-linecap="round" opacity=".45"/>
  <path d="M86 432 H426" stroke="#8a572c" stroke-width="15" stroke-linecap="round" opacity=".5"/>
  <circle cx="104" cy="378" r="9" fill="#80512a"/>
  <circle cx="402" cy="378" r="9" fill="#80512a"/>
  <circle cx="132" cy="434" r="9" fill="#80512a"/>
  <circle cx="374" cy="434" r="9" fill="#80512a"/>
  <path d="M256 322 V156" stroke="#42a82e" stroke-width="22" stroke-linecap="round"/>
  <path d="M256 216 C206 166 150 162 112 188 C156 242 211 246 256 216Z" fill="url(#leaf)"/>
  <path d="M256 210 C306 158 366 152 408 178 C364 238 303 246 256 210Z" fill="url(#leaf)"/>
  <path d="M257 266 C214 230 170 228 142 252 C178 296 224 300 257 266Z" fill="#6fd536"/>
  <path d="M256 266 C300 230 348 226 378 250 C342 298 294 302 256 266Z" fill="#6fd536"/>
  <path d="M178 282 C148 284 124 264 124 232" fill="none" stroke="#5ec832" stroke-width="24" stroke-linecap="round"/>
  <path d="M124 232 C94 236 82 260 92 284" fill="none" stroke="#5ec832" stroke-width="24" stroke-linecap="round"/>
  <path d="M92 284 C106 306 138 306 150 282" fill="none" stroke="#5ec832" stroke-width="24" stroke-linecap="round"/>
  <path d="M334 282 C364 284 388 264 388 232" fill="none" stroke="#5ec832" stroke-width="24" stroke-linecap="round"/>
  <path d="M388 232 C418 236 430 260 420 284" fill="none" stroke="#5ec832" stroke-width="24" stroke-linecap="round"/>
  <path d="M420 284 C406 306 374 306 362 282" fill="none" stroke="#5ec832" stroke-width="24" stroke-linecap="round"/>
  <path d="M214 356 C238 342 274 342 298 356 C286 374 226 374 214 356Z" fill="#6a3e20"/>
  <path d="M76 282 C98 256 136 248 168 262 C134 294 102 302 76 282Z" fill="#99dc35" opacity=".8"/>
  <path d="M360 312 C382 284 424 276 458 292 C422 326 388 334 360 312Z" fill="#99dc35" opacity=".8"/>
  <path d="M288 352 C314 318 356 304 396 318 C360 360 324 374 288 352Z" fill="#ffb34f"/>
</svg>
