<svg xmlns="http://www.w3.org/2000/svg" viewBox="0 0 260 210" role="img" aria-labelledby="title desc">
  <title id="title">椅子運動示意</title>
  <desc id="desc">長者扶著穩固椅子進行安全運動的簡化示意圖</desc>
  <rect width="260" height="210" rx="16" fill="#eef6ea"/>
  <rect x="34" y="122" width="86" height="12" rx="4" fill="#8a5a38"/>
  <rect x="42" y="68" width="18" height="68" rx="5" fill="#8a5a38"/>
  <rect x="92" y="78" width="18" height="58" rx="5" fill="#8a5a38"/>
  <rect x="46" y="128" width="12" height="48" rx="4" fill="#6d432a"/>
  <rect x="94" y="128" width="12" height="48" rx="4" fill="#6d432a"/>
  <circle cx="166" cy="60" r="20" fill="#f1c49b"/>
  <path d="M151 86 H183 C190 86 196 92 196 99 V127 H138 V99 C138 92 144 86 151 86Z" fill="#4d8ec9"/>
  <path d="M139 106 L112 126" stroke="#2f7d54" stroke-width="10" stroke-linecap="round"/>
  <path d="M195 106 L220 124" stroke="#2f7d54" stroke-width="10" stroke-linecap="round"/>
  <path d="M154 128 L145 172" stroke="#1f2a21" stroke-width="12" stroke-linecap="round"/>
  <path d="M181 128 L194 172" stroke="#1f2a21" stroke-width="12" stroke-linecap="round"/>
  <path d="M131 184 H158" stroke="#1f2a21" stroke-width="10" stroke-linecap="round"/>
  <path d="M184 184 H214" stroke="#1f2a21" stroke-width="10" stroke-linecap="round"/>
  <path d="M152 46 C161 34 177 36 185 47" stroke="#1f2a21" stroke-width="7" stroke-linecap="round"/>
  <text x="28" y="32" font-family="Microsoft JhengHei, Arial" font-size="17" font-weight="700" fill="#1e5c3b">扶穩、慢做、不硬撐</text>
</svg>
